<svg width="158" height="152" viewBox="0 0 158 152" fill="none" xmlns="http://www.w3.org/2000/svg">
<g id="Calque_1" clip-path="url(#clip0_916_858)">
<path id="Vector" d="M0.5 34.2939L49.7516 76.1988L0.5 117.704V102.297L31.511 76.1539L0.5 49.7763V34.2939Z" fill="#1E1E1E"/>
<path id="Vector_2" d="M144.407 100.557C134.971 121.097 114.18 135.345 90.0501 135.345C65.92 135.345 45.2303 121.154 35.7615 100.692L22.678 111.826C35.5802 135.74 60.916 152.002 90.0501 152.002C119.184 152.002 144.612 135.688 157.498 111.698L144.407 100.559V100.557Z" fill="#1E1E1E"/>
<path id="Vector_3" d="M35.7709 51.443C45.2068 30.9032 65.9977 16.6551 90.1279 16.6551C114.258 16.6551 134.948 30.8464 144.417 51.3082L157.5 40.1741C144.598 16.2602 119.262 0 90.1279 0C60.9937 0 35.5661 16.3146 22.678 40.3041L35.7686 51.443H35.7709Z" fill="#1E1E1E"/>
<path id="Vector_4" d="M90.2268 54.3467L96.0268 59.3947V121.059L90.1608 126.048L84.2949 121.059V59.3947L90.2268 54.3467Z" fill="#1E1E1E"/>
<path id="Vector_5" d="M117.486 53.7836C117.486 38.6252 105.258 26.3467 90.1609 26.3467C75.0639 26.3467 62.8352 38.6252 62.8352 53.7836C62.8352 64.563 69.0379 73.8907 78.0475 78.3855V67.1355C74.4493 63.8301 72.1816 59.0728 72.1816 53.8001C72.1816 43.8269 80.2281 35.75 90.1585 35.75C100.089 35.75 108.135 43.8293 108.135 53.8001C108.135 59.2785 105.708 64.1705 101.874 67.4878V78.5912C111.105 74.1555 117.482 64.7262 117.482 53.7836H117.486Z" fill="#1E1E1E"/>
</g>
<defs>
<clipPath id="clip0_916_858">
<rect width="157" height="152" fill="white" transform="translate(0.5)"/>
</clipPath>
</defs>
</svg>
